<svg version="1.1" xmlns="http://www.w3.org/2000/svg" xmlns:xlink="http://www.w3.org/1999/xlink" width="70" height="70" viewBox="0,0,70,70"><!-- Generated with https://ivantodorovich.github.io/odoo-icon --><defs><linearGradient x1="70" y1="0" x2="0" y2="70" gradientUnits="userSpaceOnUse" id="color-1"><stop offset="0" stop-color="#ffbf33"/><stop offset="1" stop-color="#fb8c00"/></linearGradient></defs><g fill="none" fill-rule="nonzero" stroke="none" stroke-width="1" stroke-linecap="butt" stroke-linejoin="miter" stroke-miterlimit="10" stroke-dasharray="" stroke-dashoffset="0" font-family="none" font-weight="none" font-size="none" text-anchor="none" style="mix-blend-mode: normal"><path d="M3.5,70c-1.933,0 -3.5,-1.567 -3.5,-3.5v-63c0,-1.933 1.567,-3.5 3.5,-3.5h63c1.933,0 3.5,1.567 3.5,3.5v63c0,1.933 -1.567,3.5 -3.5,3.5z" id="box" fill="url(#color-1)"/><path d="M65,1h-61c-1.95033,0 -3.2667,0.63396 -3.9491,1.90189c0.28378,-1.64806 1.72001,-2.90189 3.4491,-2.90189h63c1.72965,0 3.16627,1.25466 3.44938,2.90352c-0.69803,-1.26902 -2.34782,-1.90352 -4.94938,-1.90352z" id="topBoxShadow" fill="#ffffff" opacity="0.383"/><path d="M4,69h61c2.66667,0 4.33333,-1 5,-3v0.5c0,1.933 -1.567,3.5 -3.5,3.5h-63c-1.933,0 -3.5,-1.567 -3.5,-3.5c0,-0.1611 0,-0.32777 0,-0.5c0.66667,2 2,3 4,3z" id="bottomBoxShadow" fill="#000000" opacity="0.383"/><path d="M33.3123,43.28078l-0.09982,-5.72525c0.17618,-0.00184 0.39285,-0.0115 0.63619,-0.02116c2.17952,-0.09016 6.65079,-0.27232 6.70277,2.75636c0.05382,2.96153 -4.60191,2.97855 -6.73129,2.98637c-0.19182,0 -0.36433,0 -0.50785,0.00368zM33.16694,34.93578l-0.09016,-5.1921c0.1495,-0.00184 0.32799,-0.00966 0.53269,-0.01932c1.81887,-0.0805 5.54309,-0.24334 5.59277,2.51072c0.046,2.69288 -3.8314,2.69656 -5.60841,2.69886zM29.4349,59.31388c-12.31854,-3.07055 -19.8185,-15.55193 -16.74611,-27.87277c3.07055,-12.32452 15.55193,-19.82632 27.86863,-16.75209c12.32452,3.07055 19.82632,15.55193 16.75393,27.87461c-3.07239,12.32038 -15.55377,19.82034 -27.87829,16.74795zM37.64051,26.69383l-0.07452,-4.27209l-2.60088,0.046l0.07268,4.15939c-0.68403,0.0115 -1.38186,0.03818 -2.07555,0.06348l-0.07268,-4.18607l-2.59904,0.04416l0.07268,4.27255c-0.56167,0.02116 -1.11552,0.04002 -1.65419,0.04968v-0.01334l-3.58806,0.06118l0.04968,2.77522c0,0 1.91869,-0.07084 1.88971,-0.03266c1.05204,-0.01932 1.40486,0.58651 1.51434,1.11184l0.08418,4.86826c0.092,-0.00138 0.18446,0.00276 0.276,0.01334h-0.08832l-0.18584,0.00368l0.11684,6.81777c-0.04048,0.33351 -0.22632,0.86435 -0.96234,0.87953c0.0345,0.02852 -1.88971,0.03266 -1.88971,0.03266l-0.46185,3.11287l3.38473,-0.0575c0.37583,-0.00782 0.75119,-0.00966 1.12334,-0.0115l0.73417,-0.00552l0.07682,4.32039l2.59904,-0.046l-0.07682,-4.27439c0.71485,0.00368 1.40486,-0.00368 2.07785,-0.01518l0.07452,4.25507l2.59904,-0.04784l-0.07268,-4.31257c4.36639,-0.32569 7.40796,-1.48168 7.71663,-5.59277c0.24932,-3.31205 -1.33218,-4.75924 -3.82358,-5.31125c1.49318,-0.79351 2.4132,-2.16388 2.15237,-4.41423c-0.35053,-3.07423 -3.02639,-4.05957 -6.38812,-4.29739z" id="shadow" fill="#000000" opacity="0.3"/><path d="M18.72457,18.75222c5.51941,-5.51941 13.71192,-8.09018 21.83285,-6.06321c12.32452,3.07055 19.82632,15.55193 16.75393,27.87461c-1.04614,4.19506 -3.18315,7.83126 -6.0334,10.6815l-18.75487,18.75487h-29.02308c-1.933,0 -3.5,-1.567 -3.5,-3.5l0,-29.02321z" id="flatShadow" fill="#000000" opacity="0.324"/><path d="M33.3123,41.28078l-0.09982,-5.72525c0.17618,-0.00184 0.39285,-0.0115 0.63619,-0.02116c2.17952,-0.09016 6.65079,-0.27232 6.70277,2.75636c0.05382,2.96153 -4.60191,2.97855 -6.73129,2.98637c-0.19182,0 -0.36433,0 -0.50785,0.00368zM33.16694,32.93578l-0.09016,-5.1921c0.1495,-0.00184 0.32799,-0.00966 0.53269,-0.01932c1.81887,-0.0805 5.54309,-0.24334 5.59277,2.51072c0.046,2.69288 -3.8314,2.69656 -5.60841,2.69886zM29.4349,57.31388c-12.31854,-3.07055 -19.8185,-15.55193 -16.74611,-27.87277c3.07055,-12.32452 15.55193,-19.82632 27.86863,-16.75209c12.32452,3.07055 19.82632,15.55193 16.75393,27.87461c-3.07239,12.32038 -15.55377,19.82034 -27.87829,16.74795zM37.64051,24.69383l-0.07452,-4.27209l-2.60088,0.046l0.07268,4.15939c-0.68403,0.0115 -1.38186,0.03818 -2.07555,0.06348l-0.07268,-4.18607l-2.59904,0.04416l0.07268,4.27255c-0.56167,0.02116 -1.11552,0.04002 -1.65419,0.04968v-0.01334l-3.58806,0.06118l0.04968,2.77522c0,0 1.91869,-0.07084 1.88971,-0.03266c1.05204,-0.01932 1.40486,0.58651 1.51434,1.11184l0.08418,4.86826c0.092,-0.00138 0.18446,0.00276 0.276,0.01334h-0.08832l-0.18584,0.00368l0.11684,6.81777c-0.04048,0.33351 -0.22632,0.86435 -0.96234,0.87953c0.0345,0.02852 -1.88971,0.03266 -1.88971,0.03266l-0.46185,3.11287l3.38473,-0.0575c0.37583,-0.00782 0.75119,-0.00966 1.12334,-0.0115l0.73417,-0.00552l0.07682,4.32039l2.59904,-0.046l-0.07682,-4.27439c0.71485,0.00368 1.40486,-0.00368 2.07785,-0.01518l0.07452,4.25507l2.59904,-0.04784l-0.07268,-4.31257c4.36639,-0.32569 7.40796,-1.48168 7.71663,-5.59277c0.24932,-3.31205 -1.33218,-4.75924 -3.82358,-5.31125c1.49318,-0.79351 2.4132,-2.16388 2.15237,-4.41423c-0.35053,-3.07423 -3.02639,-4.05957 -6.38812,-4.29739z" id="icon" fill="#ffffff"/></g></svg>