<svg version="1.1" xmlns="http://www.w3.org/2000/svg" xmlns:xlink="http://www.w3.org/1999/xlink" width="70" height="70" viewBox="0,0,70,70"><!-- Generated with https://ivantodorovich.github.io/odoo-icon --><defs><linearGradient x1="70" y1="0" x2="0" y2="70" gradientUnits="userSpaceOnUse" id="color-1"><stop offset="0" stop-color="#36ceff"/><stop offset="1" stop-color="#039be5"/></linearGradient></defs><g fill="none" fill-rule="nonzero" stroke="none" stroke-width="1" stroke-linecap="butt" stroke-linejoin="miter" stroke-miterlimit="10" stroke-dasharray="" stroke-dashoffset="0" font-family="none" font-weight="none" font-size="none" text-anchor="none" style="mix-blend-mode: normal"><path d="M3.5,70c-1.933,0 -3.5,-1.567 -3.5,-3.5v-63c0,-1.933 1.567,-3.5 3.5,-3.5h63c1.933,0 3.5,1.567 3.5,3.5v63c0,1.933 -1.567,3.5 -3.5,3.5z" id="box" fill="url(#color-1)"/><path d="M65,1h-61c-1.95033,0 -3.2667,0.63396 -3.9491,1.90189c0.28378,-1.64806 1.72001,-2.90189 3.4491,-2.90189h63c1.72965,0 3.16627,1.25466 3.44938,2.90352c-0.69803,-1.26902 -2.34782,-1.90352 -4.94938,-1.90352z" id="topBoxShadow" fill="#ffffff" opacity="0.383"/><path d="M4,69h61c2.66667,0 4.33333,-1 5,-3v0.5c0,1.933 -1.567,3.5 -3.5,3.5h-63c-1.933,0 -3.5,-1.567 -3.5,-3.5c0,-0.1611 0,-0.32777 0,-0.5c0.66667,2 2,3 4,3z" id="bottomBoxShadow" fill="#000000" opacity="0.383"/><path d="M49.0875,33.22409c-1.33584,-6.72106 -7.23534,-11.56072 -14.0875,-11.5575c-5.53932,0 -10.35,3.14318 -12.74568,7.72432c-5.83648,0.6394 -10.2557,5.57106 -10.25432,11.4425c0,6.35122 5.14878,11.5 11.5,11.5h24.91682c5.29276,0 9.58318,-4.29042 9.58318,-9.58318c0,-5.06 -3.92932,-9.16182 -8.9125,-9.52568z" id="shadow" fill="#000000" opacity="0.3"/><path d="M15.37284,30.6908c1.54555,-1.54555 3.53416,-2.65737 5.77716,-3.12486l3.68475,-3.68475c2.60058,-2.60058 6.19583,-4.2146 10.16525,-4.2146c6.85216,-0.00322 12.75166,4.83644 14.0875,11.5575v0.00046c4.98318,0.36386 8.9125,4.46568 8.9125,9.52568c0,2.64646 -1.07267,5.04232 -2.80696,6.77653l-22.47324,22.47324h-29.2198c-1.933,0 -3.5,-1.567 -3.5,-3.5l0,-20.43636z" id="flatShadow" fill="#000000" opacity="0.324"/><path d="M49.0875,31.22409c-1.33584,-6.72106 -7.23534,-11.56072 -14.0875,-11.5575c-5.53932,0 -10.35,3.14318 -12.74568,7.72432c-5.83648,0.6394 -10.2557,5.57106 -10.25432,11.4425c0,6.35122 5.14878,11.5 11.5,11.5h24.91682c5.29276,0 9.58318,-4.29042 9.58318,-9.58318c0,-5.06 -3.92932,-9.16182 -8.9125,-9.52568z" id="icon" fill="#ffffff"/></g></svg>