<svg version="1.1" xmlns="http://www.w3.org/2000/svg" xmlns:xlink="http://www.w3.org/1999/xlink" width="70" height="70" viewBox="0,0,70,70"><!-- Generated with https://ivantodorovich.github.io/odoo-icon --><defs><linearGradient x1="70" y1="0" x2="0" y2="70" gradientUnits="userSpaceOnUse" id="color-1"><stop offset="0" stop-color="#afe675"/><stop offset="1" stop-color="#7cb342"/></linearGradient></defs><g fill="none" fill-rule="nonzero" stroke="none" stroke-width="1" stroke-linecap="butt" stroke-linejoin="miter" stroke-miterlimit="10" stroke-dasharray="" stroke-dashoffset="0" font-family="none" font-weight="none" font-size="none" text-anchor="none" style="mix-blend-mode: normal"><path d="M3.5,70c-1.933,0 -3.5,-1.567 -3.5,-3.5v-63c0,-1.933 1.567,-3.5 3.5,-3.5h63c1.933,0 3.5,1.567 3.5,3.5v63c0,1.933 -1.567,3.5 -3.5,3.5z" id="box" fill="url(#color-1)"/><path d="M65,1h-61c-1.95033,0 -3.2667,0.63396 -3.9491,1.90189c0.28378,-1.64806 1.72001,-2.90189 3.4491,-2.90189h63c1.72965,0 3.16627,1.25466 3.44938,2.90352c-0.69803,-1.26902 -2.34782,-1.90352 -4.94938,-1.90352z" id="topBoxShadow" fill="#ffffff" opacity="0.383"/><path d="M4,69h61c2.66667,0 4.33333,-1 5,-3v0.5c0,1.933 -1.567,3.5 -3.5,3.5h-63c-1.933,0 -3.5,-1.567 -3.5,-3.5c0,-0.1611 0,-0.32777 0,-0.5c0.66667,2 2,3 4,3z" id="bottomBoxShadow" fill="#000000" opacity="0.383"/><path d="M43.47375,52.73601c-6.0528,0 -11.33048,-3.43807 -13.9452,-8.47345h13.9452l2.42124,-4.84189h-17.96433c-0.12086,-0.79894 -0.19349,-1.59789 -0.19349,-2.42124c0,-0.82335 0.07263,-1.62229 0.19349,-2.42124h15.54309l2.42124,-4.84189h-16.36644c2.70305,-5.20563 8.0795,-8.47287 13.9452,-8.47345c3.89768,0 7.48102,1.42822 10.24101,3.80123l4.28525,-4.28525c-3.98659,-3.58915 -9.162,-5.57343 -14.52625,-5.5682c-9.49029,0 -17.52854,6.0528 -20.57905,14.52625h-8.47345l-2.42124,4.84189h9.82963c-0.14526,0.79894 -0.14526,1.59789 -0.14526,2.42124c0,0.82335 0,1.62229 0.14526,2.42124h-7.40839l-2.42124,4.84189h10.89469c3.05051,8.47345 11.08818,14.52625 20.57905,14.52625c5.59261,0 10.6768,-2.10631 14.52625,-5.5682l-4.30965,-4.28525c-2.73558,2.37243 -6.29452,3.80123 -10.21661,3.80123z" id="shadow" fill="#000000" opacity="0.3"/><path d="M14.42124,27.73688l5.50097,0l8.1368,-8.1368c3.94983,-3.94983 9.38965,-6.38945 15.41473,-6.38945c5.36426,-0.00523 10.53967,1.97906 14.52625,5.5682l-18.64183,18.64183h6.53681l-2.42124,4.84189l-6.8854,6.8854c2.08128,1.01719 4.41899,1.58805 6.8854,1.58805v0.00116c3.92209,0 7.48102,-1.4288 10.21661,-3.80123l4.30965,4.28525l-18.77882,18.77882h-35.72118c-1.933,0 -3.5,-1.567 -3.5,-3.5l0,-24.34189z" id="flatShadow" fill="#000000" opacity="0.324"/><path d="M43.47375,50.73601c-6.0528,0 -11.33048,-3.43807 -13.9452,-8.47345h13.9452l2.42124,-4.84189h-17.96433c-0.12086,-0.79894 -0.19349,-1.59789 -0.19349,-2.42124c0,-0.82335 0.07263,-1.62229 0.19349,-2.42124h15.54309l2.42124,-4.84189h-16.36644c2.70305,-5.20563 8.0795,-8.47287 13.9452,-8.47345c3.89768,0 7.48102,1.42822 10.24101,3.80123l4.28525,-4.28525c-3.98659,-3.58915 -9.162,-5.57343 -14.52625,-5.5682c-9.49029,0 -17.52854,6.0528 -20.57905,14.52625h-8.47345l-2.42124,4.84189h9.82963c-0.14526,0.79894 -0.14526,1.59789 -0.14526,2.42124c0,0.82335 0,1.62229 0.14526,2.42124h-7.40839l-2.42124,4.84189h10.89469c3.05051,8.47345 11.08818,14.52625 20.57905,14.52625c5.59261,0 10.6768,-2.10631 14.52625,-5.5682l-4.30965,-4.28525c-2.73558,2.37243 -6.29452,3.80123 -10.21661,3.80123z" id="icon" fill="#ffffff"/></g></svg>