<svg version="1.1" xmlns="http://www.w3.org/2000/svg" xmlns:xlink="http://www.w3.org/1999/xlink" width="70" height="70" viewBox="0,0,70,70"><!-- Generated with https://ivantodorovich.github.io/odoo-icon --><defs><linearGradient x1="70" y1="0" x2="0" y2="70" gradientUnits="userSpaceOnUse" id="color-1"><stop offset="0" stop-color="#87a1ad"/><stop offset="1" stop-color="#546e7a"/></linearGradient></defs><g fill="none" fill-rule="nonzero" stroke="none" stroke-width="1" stroke-linecap="butt" stroke-linejoin="miter" stroke-miterlimit="10" stroke-dasharray="" stroke-dashoffset="0" font-family="none" font-weight="none" font-size="none" text-anchor="none" style="mix-blend-mode: normal"><path d="M3.5,70c-1.933,0 -3.5,-1.567 -3.5,-3.5v-63c0,-1.933 1.567,-3.5 3.5,-3.5h63c1.933,0 3.5,1.567 3.5,3.5v63c0,1.933 -1.567,3.5 -3.5,3.5z" id="box" fill="url(#color-1)"/><path d="M65,1h-61c-1.95033,0 -3.2667,0.63396 -3.9491,1.90189c0.28378,-1.64806 1.72001,-2.90189 3.4491,-2.90189h63c1.72965,0 3.16627,1.25466 3.44938,2.90352c-0.69803,-1.26902 -2.34782,-1.90352 -4.94938,-1.90352z" id="topBoxShadow" fill="#ffffff" opacity="0.383"/><path d="M4,69h61c2.66667,0 4.33333,-1 5,-3v0.5c0,1.933 -1.567,3.5 -3.5,3.5h-63c-1.933,0 -3.5,-1.567 -3.5,-3.5c0,-0.1611 0,-0.32777 0,-0.5c0.66667,2 2,3 4,3z" id="bottomBoxShadow" fill="#000000" opacity="0.383"/><path d="M30.40022,56.54975v-13.79989h9.20011v13.79989h11.49972v-18.39967h6.89994l-23,-20.69983l-23,20.69983h6.89994v18.39967z" id="shadow" fill="#000000" opacity="0.3"/><path d="M12,36.15008l23,-20.69983l23,20.69983l-6.89994,6.89994v11.49972l-15.45025,15.45025h-32.14981c-1.933,0 -3.5,-1.567 -3.5,-3.5l0,-18.34992z" id="flatShadow" fill="#000000" opacity="0.324"/><path d="M30.40022,54.54975v-13.79989h9.20011v13.79989h11.49972v-18.39967h6.89994l-23,-20.69983l-23,20.69983h6.89994v18.39967z" id="icon" fill="#ffffff"/></g></svg>