<svg version="1.1" xmlns="http://www.w3.org/2000/svg" xmlns:xlink="http://www.w3.org/1999/xlink" width="70" height="70" viewBox="0,0,70,70"><!-- Generated with https://ivantodorovich.github.io/odoo-icon --><defs><linearGradient x1="70" y1="0" x2="0" y2="70" gradientUnits="userSpaceOnUse" id="color-1"><stop offset="0" stop-color="#c157dd"/><stop offset="1" stop-color="#8e24aa"/></linearGradient></defs><g fill="none" fill-rule="nonzero" stroke="none" stroke-width="1" stroke-linecap="butt" stroke-linejoin="miter" stroke-miterlimit="10" stroke-dasharray="" stroke-dashoffset="0" font-family="none" font-weight="none" font-size="none" text-anchor="none" style="mix-blend-mode: normal"><path d="M3.5,70c-1.933,0 -3.5,-1.567 -3.5,-3.5v-63c0,-1.933 1.567,-3.5 3.5,-3.5h63c1.933,0 3.5,1.567 3.5,3.5v63c0,1.933 -1.567,3.5 -3.5,3.5z" id="box" fill="url(#color-1)"/><path d="M65,1h-61c-1.95033,0 -3.2667,0.63396 -3.9491,1.90189c0.28378,-1.64806 1.72001,-2.90189 3.4491,-2.90189h63c1.72965,0 3.16627,1.25466 3.44938,2.90352c-0.69803,-1.26902 -2.34782,-1.90352 -4.94938,-1.90352z" id="topBoxShadow" fill="#ffffff" opacity="0.383"/><path d="M4,69h61c2.66667,0 4.33333,-1 5,-3v0.5c0,1.933 -1.567,3.5 -3.5,3.5h-63c-1.933,0 -3.5,-1.567 -3.5,-3.5c0,-0.1611 0,-0.32777 0,-0.5c0.66667,2 2,3 4,3z" id="bottomBoxShadow" fill="#000000" opacity="0.383"/><path d="M18.39676,39.58804v6.18225c0,1.60629 0.88024,3.10221 2.28798,3.87209l11.00058,6.00641c1.32009,0.72605 2.9042,0.72605 4.22429,0l11.00058,-6.00641c1.40827,-0.76988 2.28798,-2.26633 2.28798,-3.87209v-6.18225l-13.28909,7.2605c-1.32009,0.72605 -2.9042,0.72605 -4.22429,0zM31.68585,18.33458l-18.54727,10.12087c-1.5181,0.83588 -1.5181,3.03621 0,3.87209l18.54727,10.12087c1.32009,0.72605 2.9042,0.72605 4.22429,0l17.68921,-9.65884v13.00289c0,1.21026 0.99007,2.20033 2.20033,2.20033c1.21026,0 2.20033,-0.99007 2.20033,-2.20033v-14.10279c0,-0.81423 -0.43985,-1.54028 -1.14425,-1.93631l-20.94561,-11.41878c-1.32009,-0.70387 -2.9042,-0.70387 -4.22429,0z" id="shadow" fill="#000000" opacity="0.3"/><path d="M12.63761,26.83037c0.14295,-0.14295 0.30994,-0.26974 0.50096,-0.37492l18.54727,-10.12087c1.32009,-0.70387 2.9042,-0.70387 4.22429,0l20.94561,11.41878c0.7044,0.39603 1.14425,1.12208 1.14425,1.93631v14.10279c0,0.60513 -0.24752,1.15521 -0.64632,1.55401l-24.65353,24.65353h-29.20016c-1.933,0 -3.5,-1.567 -3.5,-3.5l0,-27.03202z" id="flatShadow" fill="#000000" opacity="0.324"/><path d="M18.39676,37.58804v6.18225c0,1.60629 0.88024,3.10221 2.28798,3.87209l11.00058,6.00641c1.32009,0.72605 2.9042,0.72605 4.22429,0l11.00058,-6.00641c1.40827,-0.76988 2.28798,-2.26633 2.28798,-3.87209v-6.18225l-13.28909,7.2605c-1.32009,0.72605 -2.9042,0.72605 -4.22429,0zM31.68585,16.33458l-18.54727,10.12087c-1.5181,0.83588 -1.5181,3.03621 0,3.87209l18.54727,10.12087c1.32009,0.72605 2.9042,0.72605 4.22429,0l17.68921,-9.65884v13.00289c0,1.21026 0.99007,2.20033 2.20033,2.20033c1.21026,0 2.20033,-0.99007 2.20033,-2.20033v-14.10279c0,-0.81423 -0.43985,-1.54028 -1.14425,-1.93631l-20.94561,-11.41878c-1.32009,-0.70387 -2.9042,-0.70387 -4.22429,0z" id="icon" fill="#ffffff"/></g></svg>